# xmcd
#
# Track frame offsets: 
#        150
#        16297
#        42427
#        62938
#        71357
#        86648
#        109535
#        121426
#        142588
#        157905
#        173089
#        195148
#        232053
#        248656
#
# Disc length: 3533 seconds
#
# Revision: 2
# Processed by: cddbd v1.5.2PL0 Copyright (c) Steve Scherf et al.
# Submitted via: ExactAudioCopy v1.0b3
#
DISCID=ab0dcb0e
DTITLE=Nikki Sudden and Rowland S. Howard - Kiss You Kidnapped Charabanc
DYEAR=2002
DGENRE=Alt. Rock
TTITLE0=Wedding Hotel
TTITLE1=Rebel Grave
TTITLE2=Sob Story
TTITLE3=Snowplough
TTITLE4=A Quick Thing
TTITLE5=Feather Beds
TTITLE6=French Revolution Blues
TTITLE7=Crossroads
TTITLE8=Don't Explain
TTITLE9=Hello Wolf (Little Baby)
TTITLE10=Better Blood
TTITLE11=Debutante Blues
TTITLE12=Girl Without A Name
TTITLE13=Wedding Hotel (The Moose)
EXTD=CRECD 022
EXTT0=
EXTT1=
EXTT2=
EXTT3=
EXTT4=
EXTT5=
EXTT6=
EXTT7=
EXTT8=
EXTT9=
EXTT10=
EXTT11=
EXTT12=
EXTT13=
PLAYORDER=
